<?xml version="1.0" encoding="iso-8859-1"?>
<!-- Generator: Adobe Illustrator 19.0.0, SVG Export Plug-In . SVG Version: 6.00 Build 0)  -->
<svg version="1.1" id="Capa_1" xmlns="http://www.w3.org/2000/svg" xmlns:xlink="http://www.w3.org/1999/xlink" x="0px" y="0px"
	 viewBox="0 0 468.293 468.293" style="enable-background:new 0 0 468.293 468.293;" xml:space="preserve">
<path style="fill:#D5D6DB;" d="M234.146,0C162.202,36.721,90.259,36.721,18.315,0v167.028c0,144.867,84.269,240.623,215.831,301.265
	h0h0c131.562-60.642,215.831-156.398,215.831-301.265V0C378.034,36.721,306.09,36.721,234.146,0z"/>
<path style="fill:#CE412D;" d="M234.146,430.927C111.648,370.329,52.038,283.873,52.038,167.026V49.981
	c24.667,7.502,49.479,11.283,74.192,11.283c36.016,0,72.242-8.029,107.916-23.903c35.673,15.874,71.9,23.903,107.916,23.903
	c24.713,0,49.525-3.781,74.192-11.283v117.045C416.254,283.873,356.645,370.329,234.146,430.927z"/>
<path style="fill:#EBF0F3;" d="M220.868,276.374l-9.985-101.764v-29.385c0-12.848,10.415-23.263,23.263-23.263h0
	c12.848,0,23.263,10.415,23.263,23.263v29.385l-9.846,101.747c-0.665,6.874-6.442,12.119-13.348,12.119h0
	C227.316,288.474,221.542,283.24,220.868,276.374z M212.72,324.823L212.72,324.823c0-11.876,9.627-21.503,21.503-21.503h0
	c11.876,0,21.503,9.627,21.503,21.503v0c0,11.876-9.627,21.503-21.503,21.503h0C222.347,346.325,212.72,336.698,212.72,324.823z"/>
<g>
</g>
<g>
</g>
<g>
</g>
<g>
</g>
<g>
</g>
<g>
</g>
<g>
</g>
<g>
</g>
<g>
</g>
<g>
</g>
<g>
</g>
<g>
</g>
<g>
</g>
<g>
</g>
<g>
</g>
</svg>
